<mxfile host="app.diagrams.net" modified="2022-09-17T04:21:28.149Z" agent="5.0 (Windows NT 10.0; Win64; x64) AppleWebKit/537.36 (KHTML, like Gecko) Chrome/105.0.0.0 Safari/537.36" etag="31tPx66L5HKegZnakc4Z" version="20.2.7" type="github">
  <diagram name="Page-1" id="c7558073-3199-34d8-9f00-42111426c3f3">
    <mxGraphModel dx="1550" dy="859" grid="1" gridSize="10" guides="1" tooltips="1" connect="1" arrows="1" fold="1" page="1" pageScale="1" pageWidth="826" pageHeight="1169" background="none" math="0" shadow="0">
      <root>
        <mxCell id="0" />
        <mxCell id="1" parent="0" />
        <mxCell id="VFtMTy9NpNzDeTnUoXWo-168" value="" style="rounded=1;whiteSpace=wrap;html=1;sketch=1;hachureGap=4;fontFamily=Architects Daughter;fontSource=https%3A%2F%2Ffonts.googleapis.com%2Fcss%3Ffamily%3DArchitects%2BDaughter;fontSize=11;fillColor=#ffe6cc;strokeColor=#d79b00;" vertex="1" parent="1">
          <mxGeometry x="140" y="50" width="430" height="130" as="geometry" />
        </mxCell>
        <mxCell id="VFtMTy9NpNzDeTnUoXWo-130" value="" style="group" vertex="1" connectable="0" parent="1">
          <mxGeometry x="355" y="70" width="100" height="100" as="geometry" />
        </mxCell>
        <mxCell id="VFtMTy9NpNzDeTnUoXWo-131" value="" style="whiteSpace=wrap;html=1;aspect=fixed;sketch=1;rounded=1;" vertex="1" parent="VFtMTy9NpNzDeTnUoXWo-130">
          <mxGeometry width="100" height="100" as="geometry" />
        </mxCell>
        <mxCell id="VFtMTy9NpNzDeTnUoXWo-132" value="" style="line;strokeWidth=2;html=1;rounded=1;sketch=1;hachureGap=4;fontFamily=Architects Daughter;fontSource=https%3A%2F%2Ffonts.googleapis.com%2Fcss%3Ffamily%3DArchitects%2BDaughter;fontSize=20;" vertex="1" parent="VFtMTy9NpNzDeTnUoXWo-130">
          <mxGeometry y="30" width="100" height="10" as="geometry" />
        </mxCell>
        <mxCell id="VFtMTy9NpNzDeTnUoXWo-133" value="" style="line;strokeWidth=2;html=1;rounded=1;sketch=1;hachureGap=4;fontFamily=Architects Daughter;fontSource=https%3A%2F%2Ffonts.googleapis.com%2Fcss%3Ffamily%3DArchitects%2BDaughter;fontSize=20;" vertex="1" parent="VFtMTy9NpNzDeTnUoXWo-130">
          <mxGeometry y="60" width="100" height="10" as="geometry" />
        </mxCell>
        <mxCell id="VFtMTy9NpNzDeTnUoXWo-134" value="&lt;font style=&quot;font-size: 11px;&quot;&gt;char *msg&lt;/font&gt;" style="text;html=1;strokeColor=none;fillColor=none;align=center;verticalAlign=middle;whiteSpace=wrap;rounded=0;sketch=1;hachureGap=4;fontFamily=Architects Daughter;fontSource=https%3A%2F%2Ffonts.googleapis.com%2Fcss%3Ffamily%3DArchitects%2BDaughter;fontSize=20;" vertex="1" parent="VFtMTy9NpNzDeTnUoXWo-130">
          <mxGeometry x="20" width="70" height="30" as="geometry" />
        </mxCell>
        <mxCell id="VFtMTy9NpNzDeTnUoXWo-135" value="&lt;font style=&quot;font-size: 11px;&quot;&gt;*next&lt;/font&gt;" style="text;html=1;strokeColor=none;fillColor=none;align=center;verticalAlign=middle;whiteSpace=wrap;rounded=0;sketch=1;hachureGap=4;fontFamily=Architects Daughter;fontSource=https%3A%2F%2Ffonts.googleapis.com%2Fcss%3Ffamily%3DArchitects%2BDaughter;fontSize=20;" vertex="1" parent="VFtMTy9NpNzDeTnUoXWo-130">
          <mxGeometry x="15" y="65" width="70" height="25" as="geometry" />
        </mxCell>
        <mxCell id="VFtMTy9NpNzDeTnUoXWo-136" value="&lt;span style=&quot;font-size: 11px;&quot;&gt;int sz&lt;/span&gt;" style="text;html=1;strokeColor=none;fillColor=none;align=center;verticalAlign=middle;whiteSpace=wrap;rounded=0;sketch=1;hachureGap=4;fontFamily=Architects Daughter;fontSource=https%3A%2F%2Ffonts.googleapis.com%2Fcss%3Ffamily%3DArchitects%2BDaughter;fontSize=20;" vertex="1" parent="VFtMTy9NpNzDeTnUoXWo-130">
          <mxGeometry x="15" y="30" width="70" height="30" as="geometry" />
        </mxCell>
        <mxCell id="VFtMTy9NpNzDeTnUoXWo-151" value="" style="group" vertex="1" connectable="0" parent="1">
          <mxGeometry x="155" y="70" width="100" height="100" as="geometry" />
        </mxCell>
        <mxCell id="VFtMTy9NpNzDeTnUoXWo-98" value="" style="whiteSpace=wrap;html=1;aspect=fixed;sketch=1;rounded=1;" vertex="1" parent="VFtMTy9NpNzDeTnUoXWo-151">
          <mxGeometry width="100" height="100" as="geometry" />
        </mxCell>
        <mxCell id="VFtMTy9NpNzDeTnUoXWo-99" value="" style="line;strokeWidth=2;html=1;rounded=1;sketch=1;hachureGap=4;fontFamily=Architects Daughter;fontSource=https%3A%2F%2Ffonts.googleapis.com%2Fcss%3Ffamily%3DArchitects%2BDaughter;fontSize=20;" vertex="1" parent="VFtMTy9NpNzDeTnUoXWo-151">
          <mxGeometry y="30" width="100" height="10" as="geometry" />
        </mxCell>
        <mxCell id="VFtMTy9NpNzDeTnUoXWo-100" value="" style="line;strokeWidth=2;html=1;rounded=1;sketch=1;hachureGap=4;fontFamily=Architects Daughter;fontSource=https%3A%2F%2Ffonts.googleapis.com%2Fcss%3Ffamily%3DArchitects%2BDaughter;fontSize=20;" vertex="1" parent="VFtMTy9NpNzDeTnUoXWo-151">
          <mxGeometry y="60" width="100" height="10" as="geometry" />
        </mxCell>
        <mxCell id="VFtMTy9NpNzDeTnUoXWo-101" value="&lt;font style=&quot;font-size: 11px;&quot;&gt;char *msg&lt;/font&gt;" style="text;html=1;strokeColor=none;fillColor=none;align=center;verticalAlign=middle;whiteSpace=wrap;rounded=0;sketch=1;hachureGap=4;fontFamily=Architects Daughter;fontSource=https%3A%2F%2Ffonts.googleapis.com%2Fcss%3Ffamily%3DArchitects%2BDaughter;fontSize=20;" vertex="1" parent="VFtMTy9NpNzDeTnUoXWo-151">
          <mxGeometry x="20" width="70" height="30" as="geometry" />
        </mxCell>
        <mxCell id="VFtMTy9NpNzDeTnUoXWo-104" value="&lt;font style=&quot;font-size: 11px;&quot;&gt;*next&lt;/font&gt;" style="text;html=1;strokeColor=none;fillColor=none;align=center;verticalAlign=middle;whiteSpace=wrap;rounded=0;sketch=1;hachureGap=4;fontFamily=Architects Daughter;fontSource=https%3A%2F%2Ffonts.googleapis.com%2Fcss%3Ffamily%3DArchitects%2BDaughter;fontSize=20;" vertex="1" parent="VFtMTy9NpNzDeTnUoXWo-151">
          <mxGeometry x="15" y="65" width="70" height="25" as="geometry" />
        </mxCell>
        <mxCell id="VFtMTy9NpNzDeTnUoXWo-105" value="&lt;span style=&quot;font-size: 11px;&quot;&gt;int sz&lt;/span&gt;" style="text;html=1;strokeColor=none;fillColor=none;align=center;verticalAlign=middle;whiteSpace=wrap;rounded=0;sketch=1;hachureGap=4;fontFamily=Architects Daughter;fontSource=https%3A%2F%2Ffonts.googleapis.com%2Fcss%3Ffamily%3DArchitects%2BDaughter;fontSize=20;" vertex="1" parent="VFtMTy9NpNzDeTnUoXWo-151">
          <mxGeometry x="15" y="30" width="70" height="30" as="geometry" />
        </mxCell>
        <mxCell id="VFtMTy9NpNzDeTnUoXWo-152" value="" style="group" vertex="1" connectable="0" parent="1">
          <mxGeometry x="255" y="70" width="100" height="100" as="geometry" />
        </mxCell>
        <mxCell id="VFtMTy9NpNzDeTnUoXWo-153" value="" style="whiteSpace=wrap;html=1;aspect=fixed;sketch=1;rounded=1;" vertex="1" parent="VFtMTy9NpNzDeTnUoXWo-152">
          <mxGeometry width="100" height="100" as="geometry" />
        </mxCell>
        <mxCell id="VFtMTy9NpNzDeTnUoXWo-154" value="" style="line;strokeWidth=2;html=1;rounded=1;sketch=1;hachureGap=4;fontFamily=Architects Daughter;fontSource=https%3A%2F%2Ffonts.googleapis.com%2Fcss%3Ffamily%3DArchitects%2BDaughter;fontSize=20;" vertex="1" parent="VFtMTy9NpNzDeTnUoXWo-152">
          <mxGeometry y="30" width="100" height="10" as="geometry" />
        </mxCell>
        <mxCell id="VFtMTy9NpNzDeTnUoXWo-155" value="" style="line;strokeWidth=2;html=1;rounded=1;sketch=1;hachureGap=4;fontFamily=Architects Daughter;fontSource=https%3A%2F%2Ffonts.googleapis.com%2Fcss%3Ffamily%3DArchitects%2BDaughter;fontSize=20;" vertex="1" parent="VFtMTy9NpNzDeTnUoXWo-152">
          <mxGeometry y="60" width="100" height="10" as="geometry" />
        </mxCell>
        <mxCell id="VFtMTy9NpNzDeTnUoXWo-156" value="&lt;font style=&quot;font-size: 11px;&quot;&gt;char *msg&lt;/font&gt;" style="text;html=1;strokeColor=none;fillColor=none;align=center;verticalAlign=middle;whiteSpace=wrap;rounded=0;sketch=1;hachureGap=4;fontFamily=Architects Daughter;fontSource=https%3A%2F%2Ffonts.googleapis.com%2Fcss%3Ffamily%3DArchitects%2BDaughter;fontSize=20;" vertex="1" parent="VFtMTy9NpNzDeTnUoXWo-152">
          <mxGeometry x="20" width="70" height="30" as="geometry" />
        </mxCell>
        <mxCell id="VFtMTy9NpNzDeTnUoXWo-157" value="&lt;font style=&quot;font-size: 11px;&quot;&gt;*next&lt;/font&gt;" style="text;html=1;strokeColor=none;fillColor=none;align=center;verticalAlign=middle;whiteSpace=wrap;rounded=0;sketch=1;hachureGap=4;fontFamily=Architects Daughter;fontSource=https%3A%2F%2Ffonts.googleapis.com%2Fcss%3Ffamily%3DArchitects%2BDaughter;fontSize=20;" vertex="1" parent="VFtMTy9NpNzDeTnUoXWo-152">
          <mxGeometry x="15" y="65" width="70" height="25" as="geometry" />
        </mxCell>
        <mxCell id="VFtMTy9NpNzDeTnUoXWo-158" value="&lt;span style=&quot;font-size: 11px;&quot;&gt;int sz&lt;/span&gt;" style="text;html=1;strokeColor=none;fillColor=none;align=center;verticalAlign=middle;whiteSpace=wrap;rounded=0;sketch=1;hachureGap=4;fontFamily=Architects Daughter;fontSource=https%3A%2F%2Ffonts.googleapis.com%2Fcss%3Ffamily%3DArchitects%2BDaughter;fontSize=20;" vertex="1" parent="VFtMTy9NpNzDeTnUoXWo-152">
          <mxGeometry x="15" y="30" width="70" height="30" as="geometry" />
        </mxCell>
        <mxCell id="VFtMTy9NpNzDeTnUoXWo-177" value="" style="group;rotation=90;" vertex="1" connectable="0" parent="1">
          <mxGeometry x="456" y="70" width="100" height="100" as="geometry" />
        </mxCell>
        <mxCell id="VFtMTy9NpNzDeTnUoXWo-124" value="" style="whiteSpace=wrap;html=1;aspect=fixed;sketch=1;rounded=1;" vertex="1" parent="VFtMTy9NpNzDeTnUoXWo-177">
          <mxGeometry width="100" height="100" as="geometry" />
        </mxCell>
        <mxCell id="VFtMTy9NpNzDeTnUoXWo-125" value="" style="line;strokeWidth=2;html=1;rounded=1;sketch=1;hachureGap=4;fontFamily=Architects Daughter;fontSource=https%3A%2F%2Ffonts.googleapis.com%2Fcss%3Ffamily%3DArchitects%2BDaughter;fontSize=20;" vertex="1" parent="VFtMTy9NpNzDeTnUoXWo-177">
          <mxGeometry y="30" width="100" height="10" as="geometry" />
        </mxCell>
        <mxCell id="VFtMTy9NpNzDeTnUoXWo-126" value="" style="line;strokeWidth=2;html=1;rounded=1;sketch=1;hachureGap=4;fontFamily=Architects Daughter;fontSource=https%3A%2F%2Ffonts.googleapis.com%2Fcss%3Ffamily%3DArchitects%2BDaughter;fontSize=20;" vertex="1" parent="VFtMTy9NpNzDeTnUoXWo-177">
          <mxGeometry y="60" width="100" height="10" as="geometry" />
        </mxCell>
        <mxCell id="VFtMTy9NpNzDeTnUoXWo-128" value="&lt;font style=&quot;font-size: 11px;&quot;&gt;*next&lt;/font&gt;" style="text;html=1;strokeColor=none;fillColor=none;align=center;verticalAlign=middle;whiteSpace=wrap;rounded=0;sketch=1;hachureGap=4;fontFamily=Architects Daughter;fontSource=https%3A%2F%2Ffonts.googleapis.com%2Fcss%3Ffamily%3DArchitects%2BDaughter;fontSize=20;" vertex="1" parent="VFtMTy9NpNzDeTnUoXWo-177">
          <mxGeometry x="15" y="65" width="70" height="30" as="geometry" />
        </mxCell>
        <mxCell id="VFtMTy9NpNzDeTnUoXWo-129" value="&lt;span style=&quot;font-size: 11px;&quot;&gt;int sz&lt;/span&gt;" style="text;html=1;strokeColor=none;fillColor=none;align=center;verticalAlign=middle;whiteSpace=wrap;rounded=0;sketch=1;hachureGap=4;fontFamily=Architects Daughter;fontSource=https%3A%2F%2Ffonts.googleapis.com%2Fcss%3Ffamily%3DArchitects%2BDaughter;fontSize=20;" vertex="1" parent="VFtMTy9NpNzDeTnUoXWo-177">
          <mxGeometry x="15" y="30" width="70" height="30" as="geometry" />
        </mxCell>
        <mxCell id="VFtMTy9NpNzDeTnUoXWo-127" value="&lt;font style=&quot;font-size: 11px;&quot;&gt;char *msg&lt;/font&gt;" style="text;html=1;strokeColor=none;fillColor=none;align=center;verticalAlign=middle;whiteSpace=wrap;rounded=0;sketch=1;hachureGap=4;fontFamily=Architects Daughter;fontSource=https%3A%2F%2Ffonts.googleapis.com%2Fcss%3Ffamily%3DArchitects%2BDaughter;fontSize=20;rotation=0;direction=east;flipH=0;flipV=1;" vertex="1" parent="VFtMTy9NpNzDeTnUoXWo-177">
          <mxGeometry x="15" width="70" height="30" as="geometry" />
        </mxCell>
        <mxCell id="VFtMTy9NpNzDeTnUoXWo-203" value="" style="rounded=1;whiteSpace=wrap;html=1;sketch=1;hachureGap=4;fontFamily=Architects Daughter;fontSource=https%3A%2F%2Ffonts.googleapis.com%2Fcss%3Ffamily%3DArchitects%2BDaughter;fontSize=11;fillColor=#ffe6cc;strokeColor=#d79b00;" vertex="1" parent="1">
          <mxGeometry x="140" y="770" width="630" height="120" as="geometry" />
        </mxCell>
        <mxCell id="VFtMTy9NpNzDeTnUoXWo-204" value="" style="group" vertex="1" connectable="0" parent="1">
          <mxGeometry x="355" y="780" width="100" height="100" as="geometry" />
        </mxCell>
        <mxCell id="VFtMTy9NpNzDeTnUoXWo-205" value="" style="whiteSpace=wrap;html=1;aspect=fixed;sketch=1;rounded=1;" vertex="1" parent="VFtMTy9NpNzDeTnUoXWo-204">
          <mxGeometry width="100" height="100" as="geometry" />
        </mxCell>
        <mxCell id="VFtMTy9NpNzDeTnUoXWo-206" value="" style="line;strokeWidth=2;html=1;rounded=1;sketch=1;hachureGap=4;fontFamily=Architects Daughter;fontSource=https%3A%2F%2Ffonts.googleapis.com%2Fcss%3Ffamily%3DArchitects%2BDaughter;fontSize=20;" vertex="1" parent="VFtMTy9NpNzDeTnUoXWo-204">
          <mxGeometry y="30" width="100" height="10" as="geometry" />
        </mxCell>
        <mxCell id="VFtMTy9NpNzDeTnUoXWo-207" value="" style="line;strokeWidth=2;html=1;rounded=1;sketch=1;hachureGap=4;fontFamily=Architects Daughter;fontSource=https%3A%2F%2Ffonts.googleapis.com%2Fcss%3Ffamily%3DArchitects%2BDaughter;fontSize=20;" vertex="1" parent="VFtMTy9NpNzDeTnUoXWo-204">
          <mxGeometry y="60" width="100" height="10" as="geometry" />
        </mxCell>
        <mxCell id="VFtMTy9NpNzDeTnUoXWo-208" value="&lt;font style=&quot;font-size: 11px;&quot;&gt;char *msg&lt;/font&gt;" style="text;html=1;strokeColor=none;fillColor=none;align=center;verticalAlign=middle;whiteSpace=wrap;rounded=0;sketch=1;hachureGap=4;fontFamily=Architects Daughter;fontSource=https%3A%2F%2Ffonts.googleapis.com%2Fcss%3Ffamily%3DArchitects%2BDaughter;fontSize=20;" vertex="1" parent="VFtMTy9NpNzDeTnUoXWo-204">
          <mxGeometry x="20" width="70" height="30" as="geometry" />
        </mxCell>
        <mxCell id="VFtMTy9NpNzDeTnUoXWo-209" value="&lt;font style=&quot;font-size: 11px;&quot;&gt;*next&lt;/font&gt;" style="text;html=1;strokeColor=none;fillColor=none;align=center;verticalAlign=middle;whiteSpace=wrap;rounded=0;sketch=1;hachureGap=4;fontFamily=Architects Daughter;fontSource=https%3A%2F%2Ffonts.googleapis.com%2Fcss%3Ffamily%3DArchitects%2BDaughter;fontSize=20;" vertex="1" parent="VFtMTy9NpNzDeTnUoXWo-204">
          <mxGeometry x="15" y="65" width="70" height="30" as="geometry" />
        </mxCell>
        <mxCell id="VFtMTy9NpNzDeTnUoXWo-210" value="&lt;span style=&quot;font-size: 11px;&quot;&gt;int sz&lt;/span&gt;" style="text;html=1;strokeColor=none;fillColor=none;align=center;verticalAlign=middle;whiteSpace=wrap;rounded=0;sketch=1;hachureGap=4;fontFamily=Architects Daughter;fontSource=https%3A%2F%2Ffonts.googleapis.com%2Fcss%3Ffamily%3DArchitects%2BDaughter;fontSize=20;" vertex="1" parent="VFtMTy9NpNzDeTnUoXWo-204">
          <mxGeometry x="15" y="30" width="70" height="30" as="geometry" />
        </mxCell>
        <mxCell id="VFtMTy9NpNzDeTnUoXWo-211" value="" style="group" vertex="1" connectable="0" parent="1">
          <mxGeometry x="155" y="780" width="100" height="100" as="geometry" />
        </mxCell>
        <mxCell id="VFtMTy9NpNzDeTnUoXWo-212" value="" style="whiteSpace=wrap;html=1;aspect=fixed;sketch=1;rounded=1;" vertex="1" parent="VFtMTy9NpNzDeTnUoXWo-211">
          <mxGeometry width="100" height="100" as="geometry" />
        </mxCell>
        <mxCell id="VFtMTy9NpNzDeTnUoXWo-213" value="" style="line;strokeWidth=2;html=1;rounded=1;sketch=1;hachureGap=4;fontFamily=Architects Daughter;fontSource=https%3A%2F%2Ffonts.googleapis.com%2Fcss%3Ffamily%3DArchitects%2BDaughter;fontSize=20;" vertex="1" parent="VFtMTy9NpNzDeTnUoXWo-211">
          <mxGeometry y="30" width="100" height="10" as="geometry" />
        </mxCell>
        <mxCell id="VFtMTy9NpNzDeTnUoXWo-214" value="" style="line;strokeWidth=2;html=1;rounded=1;sketch=1;hachureGap=4;fontFamily=Architects Daughter;fontSource=https%3A%2F%2Ffonts.googleapis.com%2Fcss%3Ffamily%3DArchitects%2BDaughter;fontSize=20;" vertex="1" parent="VFtMTy9NpNzDeTnUoXWo-211">
          <mxGeometry y="60" width="100" height="10" as="geometry" />
        </mxCell>
        <mxCell id="VFtMTy9NpNzDeTnUoXWo-215" value="&lt;font style=&quot;font-size: 11px;&quot;&gt;char *msg&lt;/font&gt;" style="text;html=1;strokeColor=none;fillColor=none;align=center;verticalAlign=middle;whiteSpace=wrap;rounded=0;sketch=1;hachureGap=4;fontFamily=Architects Daughter;fontSource=https%3A%2F%2Ffonts.googleapis.com%2Fcss%3Ffamily%3DArchitects%2BDaughter;fontSize=20;" vertex="1" parent="VFtMTy9NpNzDeTnUoXWo-211">
          <mxGeometry x="20" width="70" height="30" as="geometry" />
        </mxCell>
        <mxCell id="VFtMTy9NpNzDeTnUoXWo-216" value="&lt;font style=&quot;font-size: 11px;&quot;&gt;*next&lt;/font&gt;" style="text;html=1;strokeColor=none;fillColor=none;align=center;verticalAlign=middle;whiteSpace=wrap;rounded=0;sketch=1;hachureGap=4;fontFamily=Architects Daughter;fontSource=https%3A%2F%2Ffonts.googleapis.com%2Fcss%3Ffamily%3DArchitects%2BDaughter;fontSize=20;" vertex="1" parent="VFtMTy9NpNzDeTnUoXWo-211">
          <mxGeometry x="15" y="65" width="70" height="30" as="geometry" />
        </mxCell>
        <mxCell id="VFtMTy9NpNzDeTnUoXWo-217" value="&lt;span style=&quot;font-size: 11px;&quot;&gt;int sz&lt;/span&gt;" style="text;html=1;strokeColor=none;fillColor=none;align=center;verticalAlign=middle;whiteSpace=wrap;rounded=0;sketch=1;hachureGap=4;fontFamily=Architects Daughter;fontSource=https%3A%2F%2Ffonts.googleapis.com%2Fcss%3Ffamily%3DArchitects%2BDaughter;fontSize=20;" vertex="1" parent="VFtMTy9NpNzDeTnUoXWo-211">
          <mxGeometry x="15" y="30" width="70" height="30" as="geometry" />
        </mxCell>
        <mxCell id="VFtMTy9NpNzDeTnUoXWo-218" value="" style="group" vertex="1" connectable="0" parent="1">
          <mxGeometry x="255" y="780" width="100" height="100" as="geometry" />
        </mxCell>
        <mxCell id="VFtMTy9NpNzDeTnUoXWo-219" value="" style="whiteSpace=wrap;html=1;aspect=fixed;sketch=1;rounded=1;" vertex="1" parent="VFtMTy9NpNzDeTnUoXWo-218">
          <mxGeometry width="100" height="100" as="geometry" />
        </mxCell>
        <mxCell id="VFtMTy9NpNzDeTnUoXWo-220" value="" style="line;strokeWidth=2;html=1;rounded=1;sketch=1;hachureGap=4;fontFamily=Architects Daughter;fontSource=https%3A%2F%2Ffonts.googleapis.com%2Fcss%3Ffamily%3DArchitects%2BDaughter;fontSize=20;" vertex="1" parent="VFtMTy9NpNzDeTnUoXWo-218">
          <mxGeometry y="30" width="100" height="10" as="geometry" />
        </mxCell>
        <mxCell id="VFtMTy9NpNzDeTnUoXWo-221" value="" style="line;strokeWidth=2;html=1;rounded=1;sketch=1;hachureGap=4;fontFamily=Architects Daughter;fontSource=https%3A%2F%2Ffonts.googleapis.com%2Fcss%3Ffamily%3DArchitects%2BDaughter;fontSize=20;" vertex="1" parent="VFtMTy9NpNzDeTnUoXWo-218">
          <mxGeometry y="60" width="100" height="10" as="geometry" />
        </mxCell>
        <mxCell id="VFtMTy9NpNzDeTnUoXWo-222" value="&lt;font style=&quot;font-size: 11px;&quot;&gt;char *msg&lt;/font&gt;" style="text;html=1;strokeColor=none;fillColor=none;align=center;verticalAlign=middle;whiteSpace=wrap;rounded=0;sketch=1;hachureGap=4;fontFamily=Architects Daughter;fontSource=https%3A%2F%2Ffonts.googleapis.com%2Fcss%3Ffamily%3DArchitects%2BDaughter;fontSize=20;" vertex="1" parent="VFtMTy9NpNzDeTnUoXWo-218">
          <mxGeometry x="20" width="70" height="30" as="geometry" />
        </mxCell>
        <mxCell id="VFtMTy9NpNzDeTnUoXWo-223" value="&lt;font style=&quot;font-size: 11px;&quot;&gt;*next&lt;/font&gt;" style="text;html=1;strokeColor=none;fillColor=none;align=center;verticalAlign=middle;whiteSpace=wrap;rounded=0;sketch=1;hachureGap=4;fontFamily=Architects Daughter;fontSource=https%3A%2F%2Ffonts.googleapis.com%2Fcss%3Ffamily%3DArchitects%2BDaughter;fontSize=20;" vertex="1" parent="VFtMTy9NpNzDeTnUoXWo-218">
          <mxGeometry x="15" y="65" width="70" height="30" as="geometry" />
        </mxCell>
        <mxCell id="VFtMTy9NpNzDeTnUoXWo-224" value="&lt;span style=&quot;font-size: 11px;&quot;&gt;int sz&lt;/span&gt;" style="text;html=1;strokeColor=none;fillColor=none;align=center;verticalAlign=middle;whiteSpace=wrap;rounded=0;sketch=1;hachureGap=4;fontFamily=Architects Daughter;fontSource=https%3A%2F%2Ffonts.googleapis.com%2Fcss%3Ffamily%3DArchitects%2BDaughter;fontSize=20;" vertex="1" parent="VFtMTy9NpNzDeTnUoXWo-218">
          <mxGeometry x="15" y="30" width="70" height="30" as="geometry" />
        </mxCell>
        <mxCell id="VFtMTy9NpNzDeTnUoXWo-225" value="" style="group" vertex="1" connectable="0" parent="1">
          <mxGeometry x="456" y="780" width="100" height="100" as="geometry" />
        </mxCell>
        <mxCell id="VFtMTy9NpNzDeTnUoXWo-226" value="" style="whiteSpace=wrap;html=1;aspect=fixed;sketch=1;rounded=1;" vertex="1" parent="VFtMTy9NpNzDeTnUoXWo-225">
          <mxGeometry width="100" height="100" as="geometry" />
        </mxCell>
        <mxCell id="VFtMTy9NpNzDeTnUoXWo-227" value="" style="line;strokeWidth=2;html=1;rounded=1;sketch=1;hachureGap=4;fontFamily=Architects Daughter;fontSource=https%3A%2F%2Ffonts.googleapis.com%2Fcss%3Ffamily%3DArchitects%2BDaughter;fontSize=20;" vertex="1" parent="VFtMTy9NpNzDeTnUoXWo-225">
          <mxGeometry y="30" width="100" height="10" as="geometry" />
        </mxCell>
        <mxCell id="VFtMTy9NpNzDeTnUoXWo-228" value="" style="line;strokeWidth=2;html=1;rounded=1;sketch=1;hachureGap=4;fontFamily=Architects Daughter;fontSource=https%3A%2F%2Ffonts.googleapis.com%2Fcss%3Ffamily%3DArchitects%2BDaughter;fontSize=20;" vertex="1" parent="VFtMTy9NpNzDeTnUoXWo-225">
          <mxGeometry y="60" width="100" height="10" as="geometry" />
        </mxCell>
        <mxCell id="VFtMTy9NpNzDeTnUoXWo-229" value="&lt;font style=&quot;font-size: 11px;&quot;&gt;char *msg&lt;/font&gt;" style="text;html=1;strokeColor=none;fillColor=none;align=center;verticalAlign=middle;whiteSpace=wrap;rounded=0;sketch=1;hachureGap=4;fontFamily=Architects Daughter;fontSource=https%3A%2F%2Ffonts.googleapis.com%2Fcss%3Ffamily%3DArchitects%2BDaughter;fontSize=20;" vertex="1" parent="VFtMTy9NpNzDeTnUoXWo-225">
          <mxGeometry x="20" width="70" height="30" as="geometry" />
        </mxCell>
        <mxCell id="VFtMTy9NpNzDeTnUoXWo-230" value="&lt;font style=&quot;font-size: 11px;&quot;&gt;*next&lt;/font&gt;" style="text;html=1;strokeColor=none;fillColor=none;align=center;verticalAlign=middle;whiteSpace=wrap;rounded=0;sketch=1;hachureGap=4;fontFamily=Architects Daughter;fontSource=https%3A%2F%2Ffonts.googleapis.com%2Fcss%3Ffamily%3DArchitects%2BDaughter;fontSize=20;" vertex="1" parent="VFtMTy9NpNzDeTnUoXWo-225">
          <mxGeometry x="15" y="65" width="70" height="30" as="geometry" />
        </mxCell>
        <mxCell id="VFtMTy9NpNzDeTnUoXWo-231" value="&lt;span style=&quot;font-size: 11px;&quot;&gt;int sz&lt;/span&gt;" style="text;html=1;strokeColor=none;fillColor=none;align=center;verticalAlign=middle;whiteSpace=wrap;rounded=0;sketch=1;hachureGap=4;fontFamily=Architects Daughter;fontSource=https%3A%2F%2Ffonts.googleapis.com%2Fcss%3Ffamily%3DArchitects%2BDaughter;fontSize=20;" vertex="1" parent="VFtMTy9NpNzDeTnUoXWo-225">
          <mxGeometry x="15" y="30" width="70" height="30" as="geometry" />
        </mxCell>
        <mxCell id="VFtMTy9NpNzDeTnUoXWo-232" value="" style="group" vertex="1" connectable="0" parent="1">
          <mxGeometry x="556" y="780" width="100" height="100" as="geometry" />
        </mxCell>
        <mxCell id="VFtMTy9NpNzDeTnUoXWo-233" value="" style="whiteSpace=wrap;html=1;aspect=fixed;sketch=1;rounded=1;" vertex="1" parent="VFtMTy9NpNzDeTnUoXWo-232">
          <mxGeometry width="100" height="100" as="geometry" />
        </mxCell>
        <mxCell id="VFtMTy9NpNzDeTnUoXWo-234" value="" style="line;strokeWidth=2;html=1;rounded=1;sketch=1;hachureGap=4;fontFamily=Architects Daughter;fontSource=https%3A%2F%2Ffonts.googleapis.com%2Fcss%3Ffamily%3DArchitects%2BDaughter;fontSize=20;" vertex="1" parent="VFtMTy9NpNzDeTnUoXWo-232">
          <mxGeometry y="30" width="100" height="10" as="geometry" />
        </mxCell>
        <mxCell id="VFtMTy9NpNzDeTnUoXWo-235" value="" style="line;strokeWidth=2;html=1;rounded=1;sketch=1;hachureGap=4;fontFamily=Architects Daughter;fontSource=https%3A%2F%2Ffonts.googleapis.com%2Fcss%3Ffamily%3DArchitects%2BDaughter;fontSize=20;" vertex="1" parent="VFtMTy9NpNzDeTnUoXWo-232">
          <mxGeometry y="60" width="100" height="10" as="geometry" />
        </mxCell>
        <mxCell id="VFtMTy9NpNzDeTnUoXWo-236" value="&lt;font style=&quot;font-size: 11px;&quot;&gt;char *msg&lt;/font&gt;" style="text;html=1;strokeColor=none;fillColor=none;align=center;verticalAlign=middle;whiteSpace=wrap;rounded=0;sketch=1;hachureGap=4;fontFamily=Architects Daughter;fontSource=https%3A%2F%2Ffonts.googleapis.com%2Fcss%3Ffamily%3DArchitects%2BDaughter;fontSize=20;" vertex="1" parent="VFtMTy9NpNzDeTnUoXWo-232">
          <mxGeometry x="20" width="70" height="30" as="geometry" />
        </mxCell>
        <mxCell id="VFtMTy9NpNzDeTnUoXWo-237" value="&lt;font style=&quot;font-size: 11px;&quot;&gt;*next&lt;/font&gt;" style="text;html=1;strokeColor=none;fillColor=none;align=center;verticalAlign=middle;whiteSpace=wrap;rounded=0;sketch=1;hachureGap=4;fontFamily=Architects Daughter;fontSource=https%3A%2F%2Ffonts.googleapis.com%2Fcss%3Ffamily%3DArchitects%2BDaughter;fontSize=20;" vertex="1" parent="VFtMTy9NpNzDeTnUoXWo-232">
          <mxGeometry x="15" y="65" width="70" height="30" as="geometry" />
        </mxCell>
        <mxCell id="VFtMTy9NpNzDeTnUoXWo-238" value="&lt;span style=&quot;font-size: 11px;&quot;&gt;int sz&lt;/span&gt;" style="text;html=1;strokeColor=none;fillColor=none;align=center;verticalAlign=middle;whiteSpace=wrap;rounded=0;sketch=1;hachureGap=4;fontFamily=Architects Daughter;fontSource=https%3A%2F%2Ffonts.googleapis.com%2Fcss%3Ffamily%3DArchitects%2BDaughter;fontSize=20;" vertex="1" parent="VFtMTy9NpNzDeTnUoXWo-232">
          <mxGeometry x="15" y="30" width="70" height="30" as="geometry" />
        </mxCell>
        <mxCell id="VFtMTy9NpNzDeTnUoXWo-240" value="" style="group" vertex="1" connectable="0" parent="1">
          <mxGeometry x="657" y="780" width="100" height="100" as="geometry" />
        </mxCell>
        <mxCell id="VFtMTy9NpNzDeTnUoXWo-241" value="" style="whiteSpace=wrap;html=1;aspect=fixed;sketch=1;rounded=1;" vertex="1" parent="VFtMTy9NpNzDeTnUoXWo-240">
          <mxGeometry width="100" height="100" as="geometry" />
        </mxCell>
        <mxCell id="VFtMTy9NpNzDeTnUoXWo-242" value="" style="line;strokeWidth=2;html=1;rounded=1;sketch=1;hachureGap=4;fontFamily=Architects Daughter;fontSource=https%3A%2F%2Ffonts.googleapis.com%2Fcss%3Ffamily%3DArchitects%2BDaughter;fontSize=20;" vertex="1" parent="VFtMTy9NpNzDeTnUoXWo-240">
          <mxGeometry y="30" width="100" height="10" as="geometry" />
        </mxCell>
        <mxCell id="VFtMTy9NpNzDeTnUoXWo-243" value="" style="line;strokeWidth=2;html=1;rounded=1;sketch=1;hachureGap=4;fontFamily=Architects Daughter;fontSource=https%3A%2F%2Ffonts.googleapis.com%2Fcss%3Ffamily%3DArchitects%2BDaughter;fontSize=20;" vertex="1" parent="VFtMTy9NpNzDeTnUoXWo-240">
          <mxGeometry y="60" width="100" height="10" as="geometry" />
        </mxCell>
        <mxCell id="VFtMTy9NpNzDeTnUoXWo-244" value="&lt;font style=&quot;font-size: 11px;&quot;&gt;char *msg&lt;/font&gt;" style="text;html=1;strokeColor=none;fillColor=none;align=center;verticalAlign=middle;whiteSpace=wrap;rounded=0;sketch=1;hachureGap=4;fontFamily=Architects Daughter;fontSource=https%3A%2F%2Ffonts.googleapis.com%2Fcss%3Ffamily%3DArchitects%2BDaughter;fontSize=20;" vertex="1" parent="VFtMTy9NpNzDeTnUoXWo-240">
          <mxGeometry x="20" width="70" height="30" as="geometry" />
        </mxCell>
        <mxCell id="VFtMTy9NpNzDeTnUoXWo-245" value="&lt;font style=&quot;font-size: 11px;&quot;&gt;*next&lt;/font&gt;" style="text;html=1;strokeColor=none;fillColor=none;align=center;verticalAlign=middle;whiteSpace=wrap;rounded=0;sketch=1;hachureGap=4;fontFamily=Architects Daughter;fontSource=https%3A%2F%2Ffonts.googleapis.com%2Fcss%3Ffamily%3DArchitects%2BDaughter;fontSize=20;" vertex="1" parent="VFtMTy9NpNzDeTnUoXWo-240">
          <mxGeometry x="15" y="65" width="70" height="30" as="geometry" />
        </mxCell>
        <mxCell id="VFtMTy9NpNzDeTnUoXWo-246" value="&lt;span style=&quot;font-size: 11px;&quot;&gt;int sz&lt;/span&gt;" style="text;html=1;strokeColor=none;fillColor=none;align=center;verticalAlign=middle;whiteSpace=wrap;rounded=0;sketch=1;hachureGap=4;fontFamily=Architects Daughter;fontSource=https%3A%2F%2Ffonts.googleapis.com%2Fcss%3Ffamily%3DArchitects%2BDaughter;fontSize=20;" vertex="1" parent="VFtMTy9NpNzDeTnUoXWo-240">
          <mxGeometry x="15" y="30" width="70" height="30" as="geometry" />
        </mxCell>
        <mxCell id="VFtMTy9NpNzDeTnUoXWo-251" style="edgeStyle=orthogonalEdgeStyle;curved=1;rounded=1;sketch=1;hachureGap=4;orthogonalLoop=1;jettySize=auto;html=1;exitX=0.5;exitY=1;exitDx=0;exitDy=0;entryX=0.25;entryY=1;entryDx=0;entryDy=0;fontFamily=Architects Daughter;fontSource=https%3A%2F%2Ffonts.googleapis.com%2Fcss%3Ffamily%3DArchitects%2BDaughter;fontSize=11;endArrow=open;startSize=14;endSize=14;sourcePerimeterSpacing=8;targetPerimeterSpacing=8;fillColor=#dae8fc;strokeColor=#6c8ebf;" edge="1" parent="1" source="VFtMTy9NpNzDeTnUoXWo-104" target="VFtMTy9NpNzDeTnUoXWo-153">
          <mxGeometry relative="1" as="geometry">
            <Array as="points">
              <mxPoint x="205" y="200" />
              <mxPoint x="280" y="200" />
            </Array>
          </mxGeometry>
        </mxCell>
        <mxCell id="VFtMTy9NpNzDeTnUoXWo-252" style="edgeStyle=orthogonalEdgeStyle;curved=1;rounded=1;sketch=1;hachureGap=4;orthogonalLoop=1;jettySize=auto;html=1;exitX=0.5;exitY=1;exitDx=0;exitDy=0;entryX=0.25;entryY=1;entryDx=0;entryDy=0;fontFamily=Architects Daughter;fontSource=https%3A%2F%2Ffonts.googleapis.com%2Fcss%3Ffamily%3DArchitects%2BDaughter;fontSize=11;endArrow=open;startSize=14;endSize=14;sourcePerimeterSpacing=8;targetPerimeterSpacing=8;fillColor=#dae8fc;strokeColor=#6c8ebf;" edge="1" parent="1" source="VFtMTy9NpNzDeTnUoXWo-157" target="VFtMTy9NpNzDeTnUoXWo-131">
          <mxGeometry relative="1" as="geometry">
            <Array as="points">
              <mxPoint x="305" y="200" />
              <mxPoint x="380" y="200" />
            </Array>
          </mxGeometry>
        </mxCell>
        <mxCell id="VFtMTy9NpNzDeTnUoXWo-253" style="edgeStyle=orthogonalEdgeStyle;curved=1;rounded=1;sketch=1;hachureGap=4;orthogonalLoop=1;jettySize=auto;html=1;exitX=0.5;exitY=1;exitDx=0;exitDy=0;entryX=0.25;entryY=1;entryDx=0;entryDy=0;fontFamily=Architects Daughter;fontSource=https%3A%2F%2Ffonts.googleapis.com%2Fcss%3Ffamily%3DArchitects%2BDaughter;fontSize=11;endArrow=open;startSize=14;endSize=14;sourcePerimeterSpacing=8;targetPerimeterSpacing=8;fillColor=#dae8fc;strokeColor=#6c8ebf;" edge="1" parent="1" source="VFtMTy9NpNzDeTnUoXWo-135" target="VFtMTy9NpNzDeTnUoXWo-124">
          <mxGeometry relative="1" as="geometry">
            <Array as="points">
              <mxPoint x="405" y="200" />
              <mxPoint x="481" y="200" />
            </Array>
          </mxGeometry>
        </mxCell>
        <mxCell id="VFtMTy9NpNzDeTnUoXWo-265" value="pool" style="shape=rect;strokeColor=none;fillColor=#008cff;strokeWidth=1;dashed=0;rounded=1;arcSize=20;fontColor=#ffffff;fontSize=17;spacing=2;spacingTop=-2;align=left;autosize=1;spacingLeft=4;resizeWidth=0;resizeHeight=0;perimeter=none;shadow=0;glass=0;sketch=0;hachureGap=4;fontFamily=Architects Daughter;fontSource=https%3A%2F%2Ffonts.googleapis.com%2Fcss%3Ffamily%3DArchitects%2BDaughter;" vertex="1" parent="1">
          <mxGeometry x="160" y="30" width="50" height="30" as="geometry" />
        </mxCell>
      </root>
    </mxGraphModel>
  </diagram>
</mxfile>
